<?xml version="1.0" encoding="UTF-8" standalone="no"?><!DOCTYPE svg PUBLIC "-//W3C//DTD SVG 1.1//EN" "http://www.w3.org/Graphics/SVG/1.1/DTD/svg11.dtd"><svg width="100%" height="100%" viewBox="0 0 466 465" version="1.1" xmlns="http://www.w3.org/2000/svg" xmlns:xlink="http://www.w3.org/1999/xlink" xml:space="preserve" xmlns:serif="http://www.serif.com/" style="fill-rule:evenodd;clip-rule:evenodd;stroke-linejoin:round;stroke-miterlimit:2;"><g id="Logo-GP-Trading.png" serif:id="Logo GP Trading.png"><path d="M250.059,464.525c-42.803,1.901 -112.342,-0.526 -181.04,-66.451c-93.188,-89.427 -98.826,-259.54 25.218,-352.734c97.094,-72.947 255.28,-62.329 336.1,64.53c67.834,106.476 36.648,267.668 -97.143,332.523c-6.193,3.002 -39.821,19.303 -83.134,22.132Z" style="fill:#030303;fill-opacity:1;"/><path d="M98.025,146.117c-3.36,-9.737 5.078,-13.291 6.191,-13.76c2.718,-1.145 7.339,-1.535 5.642,-3.074c-1.462,-1.326 -9.159,2.077 -9.905,2.407c-0.828,0.366 -10.371,-1.21 -10.882,-2.648c-1.926,-5.426 3.276,-22.809 16.079,-28.738c5.795,-2.683 6.549,-2.74 7.518,-9.317c1.107,-7.51 14.651,-23.256 33.38,-21.092c1.688,0.195 3.367,0.466 5.054,0.672c6.305,0.769 1.88,-7.114 20.04,-16.287c15.226,-7.691 52.095,-7.36 52.509,33.783c0.456,45.277 0.272,50.588 0.121,54.984c-1.168,33.82 0.067,33.776 0.394,35.993c0.627,4.255 -0.805,15.502 -3.062,13.865c-0.88,-0.639 -1.951,-9.648 -14.293,-19.581c-4.616,-3.715 -7.202,-7.418 -0.052,-23.337c2.293,-5.105 0.474,-18.089 -0.98,-9.038c-0.571,3.556 -0.045,3.567 -0.749,7.103c-0.355,1.784 -2.667,-0.809 -2.988,-1.08c-0.641,-2.931 -1.22,-2.572 -3.793,-4.239c-2.297,-1.488 -3.964,-4.588 -9.905,0.709c-4.385,3.91 -2.25,9.505 -7.264,6.542c-7.383,-4.363 -13.517,-4.109 -11.976,-1.973c0.4,0.554 20.59,3.179 18.287,18.112c-0.626,4.057 -11.351,2.991 -8.099,5.486c1.061,0.813 19.246,-6.395 32.26,9.81c3.237,4.031 9.607,15.569 9.052,27.62c-0.175,3.795 1.783,3.225 2.521,6.996c5.932,30.294 -3.983,37.011 -14.612,51.398c-2.937,3.976 -7.453,-1.825 -4.148,-8.187c1.395,-2.685 4.858,-7.219 8.796,-17.146c1.573,-3.965 -0.853,-3.102 -1.042,-2.938c-1.529,1.322 -9.9,22.891 -18.139,24.651c-13.432,2.869 -16.925,-5.725 -16.958,-1.756c-0,0.043 1.851,4.682 11.009,4.929c9.241,0.249 10.786,-2.894 12.081,-1.009c2.264,3.295 4.122,6.409 2.709,7.888c-18.24,19.083 -17.509,20.44 -19.784,20.431c-2.678,-0.011 -13.621,-12.4 -15.844,-10.981c-0.236,0.151 -7.511,9.567 -15.826,19.028c-3.449,3.925 -8.333,13.283 -10.895,8.427c-9.751,-18.475 -1.473,-31.114 -6.247,-27.511c-1.858,1.402 0.654,8.393 -6.394,4.148c-2.839,-1.71 -4.679,-1.179 -3.513,-4.246c2.172,-5.714 2.28,-5.66 2.458,-6.16c1.024,-2.866 -0.879,-2.966 -1.639,-1.845c-0.966,1.425 -4.137,13.173 -16.959,7.5c-6.902,-3.054 -9.2,-10.843 -9.814,-7.518c-0.147,0.795 2.815,6.248 5.587,8.021c11.846,7.576 15.341,-0.195 25.946,9.034c3.58,3.115 3.234,10.913 7.453,18.685c0.942,1.736 4.745,4.396 -1.319,10.178c-2.646,2.523 -7.657,-6.912 -7.665,-3.906c-0.009,3.639 6.009,5.818 2.457,9.706c-9.117,9.976 -13.055,17.403 -12.084,10.187c0.278,-2.066 0.857,-3.787 0.395,-4.049c-2.474,-1.402 -2.081,0.442 -2.752,3.154c-0.7,2.829 0.024,9.078 -5.303,12.97c-4.36,3.185 -4.202,-10.385 -6.823,-6.938c-1.641,2.159 5.41,9.064 1.481,13.622c-9.216,10.691 -9.536,10.663 -10.736,10.556c-1.34,-0.119 -10.57,-5.949 -14.521,-11.616c-14.218,-20.392 -4.097,-25.928 -11.222,-30.095c-8.212,-4.803 -24.847,-25.687 -14.502,-53.688c4.488,-12.147 10.728,8.743 14.288,7.198c2.114,-0.918 -1.71,-2.491 -6.673,-12.239c-0.98,-1.924 -1.238,-9.069 -1.267,-9.864c-0.096,-2.653 0.377,-2.591 0.647,-8.927c-0.058,-0.126 -0.72,-1.575 -0.72,-1.575c-0.359,0.001 -0.478,0.677 -0.836,0.677c-1.388,5.458 -1.915,5.324 -1.902,9.838c0.013,4.773 0.876,7.065 0.673,7.94c-0.385,1.665 -2.51,-0.434 -3.528,-1.366c-16.142,-14.773 -8.44,-44.893 2.63,-51.522c1.28,2.714 0.879,2.911 2.91,5.174c1.004,1.118 2.435,-1.121 -1.814,-6.232c-5.846,-17.682 0.545,-30.041 6.253,-35.607c2.989,-2.915 2.821,-3.235 2.37,-7.373c-2.018,-18.515 9.792,-32.552 23.3,-33.618c7.605,-0.6 3.975,4.673 3.737,5.546c-1.307,4.802 0.734,4.626 1.211,8.048c-4.518,3.389 -4.656,3.606 -4.929,4.036c-2.61,4.113 3.838,-0.465 4.109,-0.658c6.238,-4.43 19.663,-0.608 15.383,3.209c-0.665,0.593 -5.979,5.331 -5.837,9.481c0.253,7.398 3.604,-11.85 16.242,-10.683c17.401,1.608 23.308,14.707 21.987,17.592c-2.553,5.576 -4.347,4.755 -8.015,17.994c-1.214,4.382 -5.719,-7.581 -10.072,-11.8c-1.463,-1.417 -3.07,-0.913 -1.987,0.866c3.943,6.481 5.115,5.864 10.006,19.004c8.686,23.337 17.957,14.078 33.73,26.329c6.619,5.141 0.878,16.201 14.371,15.362c14.165,-0.881 17.693,-19.523 14.374,-17.273c-0.13,0.088 -3.779,10.224 -9.616,13.04c-10.846,5.232 -13.231,-6.591 -13.868,-8.478c-1.13,-3.347 9.318,-3.872 11.674,-18.037c0.034,-0.206 -0.781,-8.825 -2.434,-0.943c-2.438,11.628 -10.954,15.735 -13.83,13.572c-14.886,-11.197 -20.482,-4.769 -27.891,-16.866c-4.493,-7.337 -2.294,-11.083 -2.166,-11.697c5.192,-24.852 16.065,-25.754 21.465,-31.309c0.155,-0.159 0.767,-2.695 -2.689,-0.707c-8.739,5.027 -8.139,5.858 -8.933,6.215c-2.7,1.212 -8.564,-10.013 -9.166,-12.224c-2.31,-8.492 -5.296,-19.05 8.371,-28.679c5.282,-3.722 17.154,-4.185 10.634,-5.161c-9.29,-1.391 -17.994,8.336 -19.136,9.612c-2.751,3.074 -3.382,-1.127 -7.029,-5.55c-0.156,-0.189 -10.793,-9.827 -3.059,-0.148c8.411,10.525 5.693,12.459 5.818,19.918c0.077,4.579 0.88,4.436 1.086,8.944c0.111,2.431 -3.483,0.435 -3.745,0.289c-5.65,-3.137 -15.74,-2.244 -17.004,-2.831c-7.495,-3.479 -7.549,-3.706 -15.858,-3.363Z" style="fill:#fdfdfd;"/><path d="M231.031,12.599c63.582,1.457 100.928,23.602 123.729,38.869c18.998,12.721 40.559,34.475 46.801,42.937c3.744,5.076 0.103,5.454 -3.369,7.009c-8.219,3.683 -9.306,5.755 -13.588,1.037c-35.346,-38.936 -59.111,-47.039 -69.413,-52.704c-7.273,-3.999 -13.797,-5.481 -23.223,-9.486c-1.061,-0.451 -23.376,-6.145 -24.907,-6.35c-12.928,-1.729 -12.875,-1.982 -14.005,-2.06c-46.008,-3.182 -69.536,4.934 -71.947,5.537c-10.283,2.572 -10.189,2.621 -20.21,6.239c-94.278,34.042 -154.074,142.081 -125.116,242.511c21.078,73.1 66.794,106.289 94.534,123.482c81.156,50.3 220.916,37.113 283.486,-90.672c8.716,-17.8 14.995,-43.816 15.115,-44.908c0.67,-6.082 1.601,-5.889 2.08,-11.987c1.249,-15.91 1.013,-15.901 1.838,-20.035c0.856,-4.292 16.122,-6.218 17.264,-5.013c0.857,0.904 -0.419,19.054 -2.783,34.098c-13.269,84.415 -75.736,136.865 -107.544,154.53c-74.71,41.49 -135.945,27.175 -152.686,24.185c-104.978,-18.751 -202.793,-135.24 -169.334,-269.838c20.03,-80.575 96.788,-165.922 213.28,-167.381Z" style="fill:#fdfdfd;"/><path d="M250.919,49.861c1.127,-0.027 2.253,-0.055 3.38,-0.082c11.933,0.473 11.874,0.028 23.779,0.333c-0.164,1.425 -0.232,1.395 0.113,2.794c-4.671,0.189 -11.247,0.15 -22.174,0.049c-0.383,-0.027 -0.766,-0.054 -1.149,-0.081c-0.882,1.541 -0.996,1.74 -0.672,22.184c0.046,2.92 1.146,2.315 2.854,2.325c20.283,0.111 20.909,1.039 21.674,-0.518c0.203,-0.413 0.146,-3.403 0.16,-11.803c0.014,-8.287 -0.007,-8.259 -0.227,-11.817c0.001,-1.145 0.002,-2.29 0.003,-3.435c0.175,-1.719 0.296,-5.369 2.195,-4.494c0.352,0.162 0.541,0.249 1.264,4.672c0.015,1.582 -0.153,1.49 -0.144,3.033c-0.443,3.099 -0.527,20.549 -0.015,24.092c-0.027,0.263 0.551,0.331 0.525,0.594c-0.079,0.774 -0.641,0.501 -0.714,1.265c-0.069,0.73 0.541,0.554 0.472,1.275c-1.022,3.328 -0.845,24.273 0.054,24.486c0.273,0.065 22.931,0.108 23.44,-0.032c0.868,-0.239 1.021,-21.227 0.126,-24.483c-0.025,-0.201 -0.318,-2.51 -0.318,-2.51c0.021,-0.271 0.468,-0.381 0.489,-0.651c0.791,-5.084 -0.046,-19.646 0.43,-20.861c3.757,-9.591 2.398,19.841 2.853,20.705c0.553,1.051 18.779,0.272 22.795,0.483c3.416,0.18 0.795,-5.77 1.972,-7.293c2.7,-3.491 2.665,6.759 2.917,7.988c-0.012,0.645 -0.024,1.289 -0.036,1.934c-0.85,5.303 -0.093,18.682 -0.367,23.157c-0.189,3.084 4.289,1.142 24.49,1.077c0.961,0.008 1.921,0.016 2.882,0.024c5.442,-0.009 13.797,-0.725 12.699,1.616c-1.186,2.528 -12.143,-1.237 -12.124,3.026c0.084,18.566 -0.535,18.54 -0.453,20.15c0.101,1.977 -1.099,2.771 -1.365,3.203c0.03,0.563 0.06,1.125 0.09,1.688c3.482,5.587 0.706,19.951 2.049,25.196c1.061,4.143 -2.42,8.619 -2.952,4.982c-0.044,-0.298 0.035,-0.616 -0.061,-0.902c-0.796,-2.362 -24.465,-1.052 -24.552,-1c-0.527,0.316 -0.276,17.705 -0.225,24.819l-0.022,3.014c-0.291,24.558 0.479,24.884 -1.142,26.808c-0.421,-0.546 -0.842,-1.092 -1.262,-1.638c-0.274,-10.799 -0.025,-10.733 -0.207,-25.309c0.321,-1.848 0.34,-1.772 0.082,-3.673c0.059,-14.716 -0.032,-23.618 -0.825,-23.94c-1.206,-0.49 -14.591,-0.342 -19.661,-0.469c-3.163,-0.079 -4.527,-0.922 -4.574,2.241c-0.312,21.277 -0.293,22.133 1.485,22.362c3.085,0.399 7.222,-0.301 22.123,0.172c-1.014,2.266 -0.909,2.284 -1.037,2.454c-20.504,0.179 -20.519,-0.029 -22.638,0.417c-0.381,-0.206 -0.918,0.179 -1.299,-0.028c-2.264,-1.226 -0.99,-8.603 -1.338,-25.378c-0.051,-2.453 -1.443,-1.636 -22.729,-1.957c-1.172,-0.646 -1.13,-2.199 -1.872,-1.032c-0.321,0.504 0.342,0.562 0.032,1.05c-0.477,3.084 -0.286,3.567 -0.223,23.931c-0.011,0.985 -0.023,1.97 -0.034,2.955c0.099,12.526 0.038,12.442 -0.005,25.037l-0.003,1.97c-0.225,4.488 -0.064,4.5 -0.242,4.844c-1.813,3.493 -2.265,-3.559 -2.288,-3.922c-0.018,-4.462 0.032,-4.45 0.025,-4.837c0.031,-1.769 0.36,-20.253 -0.293,-22.113c-0.789,-2.246 -12.432,0.151 -15.993,-0.68c-2.053,-0.479 -3.187,0.374 -8.519,0.362c-0.35,-1.399 -0.244,-1.369 -0.268,-2.806c0.2,-0.017 0.271,0.394 0.471,0.376c1.614,-0.139 1.563,-0.29 3.216,-0.2c1.721,0.093 7.455,-0.407 7.9,-0.296c1.573,0.392 1.513,-0.136 3.148,-0.241c8.2,-0.524 10.097,1.095 10.181,-2.453c0.462,-19.579 0.918,-19.75 -0.153,-21.05c-1.175,-1.426 -1.495,-1.174 -23.077,-0.863c-0.174,0.003 -0.145,0.07 -1.959,0.945c-0.674,0.077 -0.292,-0.786 -1.013,-0.703c-0.865,0.099 -0.439,0.782 -1.311,0.97c-0.249,0.053 -0.245,-0.635 -0.494,-0.582c-4.468,-1.118 -20.945,1.22 -17.964,-2.51c1.139,-1.426 14.273,0.29 17.827,-1.144l0.998,-0.078c1.038,0.288 1.051,0.397 1.995,-0.147c3.272,0.683 21.641,0.69 24.818,0.016c0.231,-1.483 0.128,-1.487 -0.036,-21.866c-0.014,-1.717 -0.147,-2.026 -1.858,-2.036c-20.418,-0.112 -20.973,-0.004 -22.761,0.341c-1.69,0.087 -1.633,-0.25 -3.297,-0.228c-14.789,-0.243 -20.032,0.216 -17.228,-2.315c1.367,-1.234 1.665,-0.196 17.305,-0.733c0.165,-0.438 0.331,-0.875 0.496,-1.313c-0.717,-20.062 -0.269,-20.047 -0.332,-21.789c-0.121,-3.327 -21.756,0.785 -17.86,-3.618c1.349,-1.524 18.083,0.686 18.194,-1.751c0.075,-1.644 -0.306,-1.566 -0.277,-20.567c0.004,-2.778 -0.577,-2.817 -2.266,-2.86c-5.955,-0.153 -18.345,1.016 -15.945,-2.112c1.593,-2.076 18.578,0.942 18.291,-1.909c-0.449,-4.466 1.259,-22.549 -1.449,-22.897c-3.909,-0.503 -20.981,1.031 -16.518,-2.803c0.544,-0.467 0.646,-0.26 17.526,-0.61Z" style="fill:#7c7c7b;"/><path d="M149.895,381.08c0.476,-1.553 0.414,-1.579 0.514,-1.677c4.18,-4.066 3.943,-4.216 6.476,-9.496c0.836,-1.743 10.951,4.528 11.903,5.475c6.57,6.539 5.455,17.504 5.489,17.585c2.172,5.11 3.645,-11.159 -1.25,-15.901c-6.293,-6.097 9.113,-2.173 14.786,7.15c8.477,13.929 -5.854,21.321 -4.659,22.745c0.579,0.69 1.864,1.741 8.536,-7.331c0.051,0.078 1.459,0.437 1.5,2.277c0.029,1.271 0.597,0.572 0.913,0.589c0.247,0.014 0.423,0.513 0.635,0.386c1.438,-0.865 -1.575,-4.541 -1.839,-4.863c-0.047,-14.116 -2.44,-13.886 -2.085,-15.049c0.371,-1.216 7.562,-1.249 8.228,-1.252c7.966,-0.036 6.585,4.837 7.491,6.244c1.626,2.524 -2.147,3.841 -2.502,3.965c-0.181,-2.693 0.972,-3.099 -0.97,-4.954c-1.105,-6.882 -7.277,-0.835 -6.305,3.195c1.589,6.584 8.107,3.885 10.527,3.357c5.197,1.215 4.657,-0.877 4.433,-1.167c-0.459,-0.594 -0.57,-0.299 -3.661,-0.31c1.848,-13.666 -5.565,-13.021 -16.961,-12.412c-0.975,0.052 -4.77,0.255 -10.755,-5.775c-3.123,-3.147 10.222,-5.844 5.683,-7.742c-0.325,-0.136 -7.386,3.533 -8.018,3.862c-9.883,5.135 -25.348,-6.179 -29.585,-13.141c-7.579,-12.454 7.175,-3.993 14.086,-8.431c4.369,-2.806 -1.339,-1.279 -6.461,-0.848c-13.414,1.128 0.308,-8.743 7.545,-16.914c5.221,-5.894 5.832,-8.572 9.836,-5.021c7.603,6.741 7.218,7.108 9.695,9.326c2.712,2.429 6.127,-3.427 16.238,-13.545c2.274,-2.275 4.201,-1.462 4.762,-3.334c1.816,-6.056 3.793,-4.724 11.357,-13.631c2.609,-3.073 3.57,-0.702 6.692,4.525c3.159,5.289 2.207,32.586 1.964,36.099c-1.429,20.674 0.09,38.811 -0.762,45.039c-6.084,44.474 -56.371,37.001 -70.969,14.716c-3.923,-5.988 -6.076,-3.986 -9.362,-4.077c-11.288,-0.312 -31.702,-11.965 -28.993,-17.677c0.371,-0.782 23.873,-25.342 27.221,-28.769c2.302,-2.356 2.62,-0.329 4.152,2.541c4.449,8.336 9.943,8.689 7.872,14.318c-4.995,13.574 -17.756,-0.173 -17.799,2.962c-0.051,3.684 10.756,5.63 10.811,5.788c1.149,3.325 -13.867,5.315 -12.907,6.997c1.571,2.754 14.94,-3.817 15.592,-4.027c9.123,2.673 2.014,8.618 0.274,6.754c-0.768,-0.822 3.037,-3.858 -0.223,-3.477c-3.126,0.365 -2.627,7.734 4.042,5.344c2.995,-1.073 5.032,-8.98 -3.189,-10.417Z" style="fill:#fdfdfd;"/><path d="M105.985,374.841c-0.181,-0.359 -0.724,-0.439 -0.905,-0.798c-0.385,-0.764 2.491,-3.849 2.763,-4.141c8.655,-9.286 44.495,-53.222 59.391,-70.692c2.993,-3.51 6.418,1.522 12.161,6.415c3.53,3.008 4.233,1.606 7.424,-1.766c23.335,-24.656 23.175,-24.681 25.202,-26.815c49.382,-51.978 48.683,-52.509 53.038,-56.958c1.928,-1.97 6.609,2.929 14.825,11.121c35.462,35.363 35.354,36.354 37.139,35.827c1.633,-0.482 58.998,-109.269 70.424,-128.735c2.769,-4.717 -1.245,-3.515 -6.474,-4.944c-1.896,-0.518 -13.856,-0.104 -4.769,-4.995c2.858,-1.538 35.322,-19.01 35.858,-18.98c1.65,0.092 1.801,6.724 2.686,16.704c1.708,19.256 3.71,30.421 -0.872,26.22c-7.981,-7.318 -9.547,-11.68 -12.05,-6.347c-4.282,9.126 -13.281,24.109 -21.443,39.287c-4.508,8.385 -38.534,71.666 -56.615,104.668c-3.984,7.271 -6.293,2.563 -13.657,-4.933c-40.355,-41.083 -40.716,-43.448 -43.107,-43.049c-1.422,0.237 -36.118,36.148 -54.779,54.316c-23.798,23.168 -23.436,23.469 -25.51,25.473c-4.09,3.951 -13.606,-12.6 -16.6,-12.222c-1.159,0.146 -52.835,55 -64.129,65.342Z" style="fill:#00d4aa;"/><path d="M271.971,267.085c-0.005,0.985 -0.009,1.97 -0.014,2.954c0.147,7.995 0.295,15.99 0.442,23.985l0.041,4.06c-0.211,60.559 0.432,124.639 -0.43,125.957c-1.153,1.765 -15.555,4.357 -16.821,2.872c-1.555,-1.824 0.457,-113.919 -0.917,-142.864c-0.393,-8.278 -0.467,-8.256 0.289,-12.016c0.722,-3.588 -0.537,-3.838 1.134,-7.141c2.729,-5.392 2.611,-6.218 6.33,-6.285c4.697,-0.085 9.563,-0.902 9.693,2.461c0.099,2.555 -0.066,2.484 0.041,5.037c0.022,0.526 0.188,0.437 0.21,0.977Z" style="fill:#00d4aa;"/><path d="M363.389,239.089c0.028,-3.947 -1.309,-9.89 3.646,-9.902c12.763,-0.031 12.793,-0.157 13.801,0.293c2.078,0.929 0.304,28.239 1.124,37.604c-0.012,0.647 -0.024,1.295 -0.036,1.942c-0.103,11.936 1.357,80.367 0.696,84.948c-0.296,2.053 -0.732,5.071 -16.82,19.736c-1.431,1.305 -2.103,-1.377 -2.155,-1.584c-0.194,-0.773 -0.392,-99.351 -0.106,-102.062c0.23,-2.004 0.064,-1.964 -0.133,-3.969c-0.067,-14.145 -0.025,-14.061 0.002,-22.059c-0.007,-1.649 -0.013,-3.298 -0.02,-4.947Z" style="fill:#00d4aa;"/><path d="M390.293,192.527c0.608,0.089 1.215,0.179 1.823,0.268c10.072,0.259 11.968,-0.04 11.958,2.26c-0.04,9.045 -0.354,8.983 -0.373,18.039l-0.013,3.911c-0.075,11.605 -0.06,11.542 -0.028,23.114l-0.014,1.883c-0.035,12.594 -0.082,12.538 0.038,25.135c-0.001,0.943 -0.003,1.886 -0.004,2.828c-0.103,13.59 -0.05,13.513 -0.049,27.038c0.076,23.459 1.792,24.094 -2.992,31.808c-0.91,1.467 -10.124,16.324 -11.769,18.079c-0.604,0.644 -2.519,1.03 -2.551,-2.838c-0.168,-20.367 0.353,-68.974 -0.27,-74c0.008,-0.248 -0.161,-0.161 -0.235,-3.091c0.464,-3.334 0.354,-3.343 0.485,-45.901c0.074,-24.091 -0.796,-24.359 1.041,-27.579c0.232,-0.089 1.628,-0.624 2.953,-0.954Z" style="fill:#00d4aa;"/><path d="M242.015,428.704c-0.216,0.003 -8.474,1.422 -8.691,-2.669c-0.563,-10.623 -0.076,-10.578 -0.257,-132.977c-0.007,-4.791 2.192,-3.345 6.972,-3.316c4.787,0.029 10.509,-0.928 10.594,2.377c0.142,5.535 -0.026,74.373 0.042,129.941c0.001,0.469 0.006,5.193 -0.78,5.815c-0.646,0.51 -7.246,0.801 -7.879,0.829Z" style="fill:#00d4aa;"/><path d="M279.176,302.432c0.906,-0.013 1.813,-0.026 2.719,-0.038c6.851,0.566 11.293,-0.312 12.183,0.619c1.852,1.937 0.934,95.539 0.852,100.04c-0.259,14.229 0.156,15.502 -3.989,16.591c-12.002,3.153 -12.947,4.701 -13.819,2.369c-0.883,-2.36 -0.715,-78.285 -0.535,-103.961c0.088,-12.455 -1.633,-13.94 2.588,-15.62Z" style="fill:#00d4aa;"/><path d="M341.91,320.022c1.228,-13.597 -1.342,-40.134 1.925,-41.389c0.516,-0.198 14.762,-0.989 15.816,0.715c0.692,1.118 0.502,1.256 0.64,67.716c0.063,30.649 0.046,30.687 -1.065,33.092c-0.964,2.088 -14.536,12.405 -16.191,11.899c-1.531,-0.468 -0.62,-1.295 -0.873,-20.994c-0.101,-7.884 -0.12,-45.084 -0.122,-49.005c-0.044,-0.678 -0.087,-1.356 -0.131,-2.034Z" style="fill:#00d4aa;"/><path d="M335.012,317.549c3.187,1.13 2.537,2.206 2.619,16.509c0.347,60.548 1.612,61.963 -2.804,64.7c-12.918,8.005 -13.771,7.15 -14.468,6.105c-1.027,-1.541 0.032,-62.848 -1.065,-84.749c0.929,-1.815 0.676,-2.358 2.695,-2.447c4.181,-0.184 11.981,-0.126 13.023,-0.118Z" style="fill:#00d4aa;"/><path d="M307.019,333.998c1.016,-0.051 2.032,-0.102 3.048,-0.153c4.156,0.057 6.133,-0.431 6.242,6.206c0.089,5.444 1.057,64.734 -0.153,68.055c-0.561,1.54 -17.119,11.339 -17.928,5.919c-0.113,-0.756 -0.186,-77.096 0.118,-77.882c0.53,-1.369 0.77,-1.673 8.673,-2.146Z" style="fill:#00d4aa;"/><path d="M98.025,146.117c8.309,-0.343 8.363,-0.116 15.858,3.363c1.265,0.587 11.355,-0.306 17.004,2.831c0.263,0.146 3.856,2.141 3.745,-0.289c-0.206,-4.509 -1.009,-4.366 -1.086,-8.944c-0.125,-7.459 2.593,-9.393 -5.818,-19.918c-7.734,-9.679 2.903,-0.041 3.059,0.148c3.647,4.424 4.277,8.625 7.029,5.55c1.142,-1.277 9.846,-11.003 19.136,-9.612c6.52,0.976 -5.352,1.439 -10.634,5.161c-13.667,9.63 -10.682,20.188 -8.371,28.679c0.601,2.211 6.465,13.436 9.166,12.224c0.794,-0.357 0.194,-1.188 8.933,-6.215c3.456,-1.988 2.844,0.547 2.689,0.707c-5.4,5.555 -16.273,6.457 -21.465,31.309c-0.128,0.615 -2.328,4.36 2.166,11.697c7.408,12.097 13.005,5.669 27.891,16.866c2.876,2.163 11.392,-1.944 13.83,-13.572c1.653,-7.882 2.468,0.737 2.434,0.943c-2.355,14.165 -12.804,14.69 -11.674,18.037c0.637,1.887 3.022,13.71 13.868,8.478c5.838,-2.816 9.487,-12.952 9.616,-13.04c3.319,-2.249 -0.208,16.392 -14.374,17.273c-13.492,0.839 -7.751,-10.22 -14.371,-15.362c-15.773,-12.251 -25.044,-2.992 -33.73,-26.329c-4.891,-13.14 -6.063,-12.523 -10.006,-19.004c-1.083,-1.78 0.524,-2.284 1.987,-0.866c4.354,4.219 8.858,16.182 10.072,11.8c3.668,-13.239 5.461,-12.418 8.015,-17.994c1.321,-2.885 -4.586,-15.984 -21.987,-17.592c-12.637,-1.168 -15.989,18.08 -16.242,10.683c-0.142,-4.151 5.172,-8.889 5.837,-9.481c4.281,-3.817 -9.145,-7.639 -15.383,-3.209c-0.271,0.193 -6.719,4.772 -4.109,0.658c0.273,-0.43 0.411,-0.647 4.929,-4.036l1.986,-0.943Z" style="fill:#1f1f1f;"/><path d="M282.193,162.144l1.841,-0.018c21.285,0.321 22.678,-0.496 22.729,1.957c0.348,16.775 -0.926,24.152 1.338,25.378c0.381,0.206 0.918,-0.179 1.299,0.028c-0.443,4.584 -0.27,7.602 -0.222,23.541c-0.018,2.038 0.136,3.873 0.164,4.209c-0.384,3.631 -0.18,3.612 -0.179,11.816c0.001,7.621 -0.286,7.774 0.523,11.204c-0.073,2.241 -0.084,2.197 -0.068,2.6c-0.183,2.428 0.442,6.533 -1.697,5.641c-1.03,-0.43 -1,-4.961 -0.997,-5.4c-0.037,-1.04 0.091,-0.994 0.053,-2.043c-0.006,-0.167 -0.009,-0.154 -0.126,-2.082c-1.176,-4.824 -0.096,-13.969 -0.657,-22l0.422,-2.941c-1.038,-22.248 0.423,-22.341 -0.266,-24.145c-0.171,-0.448 -1.212,0.055 -1.383,-0.393l-0.318,-1.232c-0.2,-0.411 -0.4,-0.821 -0.6,-1.232c-2.81,-0.583 -2.787,-0.63 -3.035,-0.629c-9.714,0.011 -9.659,0.277 -19.044,-0.325c-0.063,-20.364 -0.254,-20.847 0.223,-23.931Z" style="fill:#151514;"/><path d="M309.399,189.489c2.119,-0.445 2.133,-0.237 22.638,-0.417c0.802,0.284 1.604,0.568 2.406,0.851c0.182,14.576 -0.067,14.511 0.207,25.309c-0.255,-0.275 0.115,-0.841 -0.14,-1.116c-0.946,-1.02 -1.244,-0.06 -3.412,-0.505c-4.054,-0.832 -17.894,0.962 -21.92,-0.582c-0.048,-15.939 -0.22,-18.957 0.222,-23.541Z" style="fill:#030303;"/><path d="M254.076,163.106c1.814,-0.875 1.785,-0.942 1.959,-0.945c21.582,-0.311 21.902,-0.563 23.077,0.863c1.071,1.3 0.615,1.471 0.153,21.05c-0.084,3.548 -1.98,1.93 -10.181,2.453c-1.635,0.104 -1.575,0.632 -3.148,0.241c-0.445,-0.111 -6.18,0.389 -7.9,0.296c-1.652,-0.09 -1.602,0.061 -3.216,0.2c-0.2,0.017 -0.271,-0.394 -0.471,-0.376c-0.677,-11.893 0.043,-11.857 -0.273,-23.782Z" style="fill:#010101;"/><path d="M362.042,132.029c-23.515,-0.655 -23.803,0.814 -24.981,-0.007c-0.862,-0.6 -0.47,-23.594 -0.069,-24.007c0.122,-0.126 22.616,-1.481 24.011,-0.885c1.896,0.811 -0.64,20.148 1.04,24.898Z" style="fill:#010101;"/><path d="M334.524,186.251l-1.451,0.367c-14.901,-0.473 -19.039,0.226 -22.123,-0.172c-1.778,-0.23 -1.798,-1.086 -1.485,-22.362c0.046,-3.163 1.411,-2.32 4.574,-2.241c5.07,0.127 18.455,-0.021 19.661,0.469c0.793,0.322 0.883,9.224 0.825,23.94Z" style="fill:#020202;"/><path d="M278.699,131.792c-1.748,0.49 -3.782,1.059 -22.685,0.451c-3.386,-0.109 -1.798,-1.749 -1.789,-5.181c0.045,-18.375 -0.533,-18.899 0.615,-19.309c0.473,-0.169 23.126,-0.244 23.446,-0.032c1.199,0.797 0.523,23.118 0.414,24.071Z"/><path d="M304.067,107.616c0.386,-0.021 0.772,0.072 1.158,0.051c2.202,-0.118 0.896,24.28 0.789,24.373c-1.124,0.983 -21.19,0.239 -23.031,0.17c-1.57,-0.058 -1.312,-0.591 -1.318,-2.117c-0.084,-20.537 -0.589,-20.583 0.243,-22.148c0.222,-0.417 0.366,-0.295 22.159,-0.33Z"/><path d="M278.885,85.058c0.008,18.951 0.288,19.559 -1.005,19.725c-1.078,0.139 -19.187,0.02 -20.855,0.009c-3.99,-0.026 -2.861,-1.78 -2.868,-5.734c-0.034,-18.477 0.104,-18.925 0.921,-18.936c1.876,-0.026 22.636,-0.318 23.444,0.514c0.501,0.516 0.258,0.599 0.364,4.423Z"/><path d="M314.036,132.226c-4.045,-0.341 -4.836,0.323 -4.879,-1.214c-0.051,-1.821 -0.597,-21.257 0.161,-22.773c0.776,-1.554 1.458,-0.029 21.705,-0.684c4.464,-0.144 2.76,2.098 2.761,6.502c0.007,17.692 -0.11,17.691 -0.112,17.695c-0.341,0.62 -0.735,0.475 -19.635,0.473Z"/><path d="M282.007,159.09c-0.139,-1.888 -0.46,-22.384 -0.246,-23.181c0.463,-1.722 1.271,-1.126 22.274,-0.884c2.031,0.023 2.533,-0.019 2.614,2.018c0.069,1.742 0.8,20.153 -0.02,21.79c-0.46,0.918 -21.888,0.549 -24.622,0.257Z" style="fill:#010101;"/><path d="M282.243,80.247c11.852,0.239 11.776,-0.103 23.62,-0.028c0.895,3.256 0.742,24.244 -0.126,24.483c-0.509,0.14 -23.167,0.097 -23.44,0.032c-0.899,-0.213 -1.076,-21.159 -0.054,-24.486Z"/><path d="M359.029,134.511c0.472,0.721 1.748,0.606 2.22,1.327c0.275,0.42 0.509,19.497 0.53,21.193l0.144,1.825c-3.509,0.49 -24.55,0.253 -24.716,0.07c-0.097,-0.107 -0.736,-22.425 -0.554,-23.129c0.395,-1.521 16.389,-1.245 22.375,-1.287Z" style="fill:#020202;"/><path d="M254.278,135.367c1.788,-0.346 2.343,-0.453 22.761,-0.341c1.711,0.009 1.844,0.319 1.858,2.036c0.165,20.378 0.268,20.382 0.036,21.866c-3.177,0.674 -21.545,0.666 -24.818,-0.016c0.409,-11.84 0.04,-11.757 0.163,-23.543Z"/><path d="M320.034,104.791c-6.767,0.008 -10.877,0.723 -10.892,-1.754c-0.128,-21.507 -0.726,-22.591 1.087,-22.658c1.584,-0.059 1.566,0.048 19.814,-0.106c1.684,-0.014 3.696,-0.607 3.739,0.892c0.054,1.866 0.643,22.411 -0.366,23.335c-0.397,0.363 -4.379,0.279 -13.383,0.292Z" style="fill:#010101;"/><path d="M254.867,52.873l1.149,0.081c10.927,0.101 17.503,0.141 22.174,-0.049l0.466,0.338c0.22,3.559 0.241,3.53 0.227,11.817c-0.014,8.399 0.043,11.389 -0.16,11.803c-0.765,1.557 -1.39,0.629 -21.674,0.518c-1.708,-0.009 -2.808,0.595 -2.854,-2.325c-0.324,-20.444 -0.21,-20.643 0.672,-22.184Z"/><path d="M323.027,159.207c-12.544,-0.271 -12.529,-0.192 -12.866,-0.358c-0.897,-0.441 -1.821,-23.565 -0.122,-23.784c0.928,-0.119 20.239,-0.041 21.999,-0.034c2.405,0.01 1.742,1.614 1.756,2.029c0.672,19.429 0.728,19.407 0.54,21.083c-0.183,1.627 -5.651,1.116 -11.307,1.064Z"/><path d="M281.936,189.03c21.205,0.566 21.201,0.253 23.031,0.463c0.171,0.448 1.212,-0.055 1.383,0.393c0.689,1.805 -0.772,1.897 0.266,24.145c-2.291,0.728 -2.18,-0.746 -4.58,-0.725c-8.306,0.074 -17.099,-0.412 -18.01,-0.192c-0.746,0.18 -1.349,0.772 -2.095,0.952c0.043,-12.595 0.104,-12.511 0.005,-25.037Z" style="fill:#010101;"/><path d="M71.947,297.772c8.18,-2.051 5.188,7.326 1.12,7.583c-3.272,0.207 -3.237,0.023 -4.994,-0.408c-0.118,-0.113 -1.479,-1.416 -1.479,-1.416c-0.254,-0.226 -0.752,-0.137 -0.924,-0.429c-0.182,-0.309 0.219,-0.767 0.036,-1.076c0.337,-4.768 -0.497,-4.919 1.191,-8.038c4.015,-7.423 13.289,-2.407 14.071,-2.996c1.164,-0.878 0.471,-1.179 0.059,-4.934c-0.095,-0.866 -0.788,-7.182 0.31,-10.888c1.14,-3.846 3.748,-3.279 3.371,-1.115c-1.086,6.229 -1.337,6.263 0.055,13.061c2.89,14.117 17.697,21.969 22.329,22.64c7.674,1.112 8.853,0.374 9.887,0.521c4.151,0.591 -0.659,4.979 -8.97,2.944c-14.081,-3.447 -18.261,-10.463 -21.137,-13.999c-4.742,-5.829 -0.952,11.918 1.004,14.919c8.35,12.813 15.419,11.8 17.312,12.786c1.495,0.778 -0.921,2.858 -5.236,1.353c-3.933,-1.372 -4.108,-4.314 -7.157,-1.507c-3.016,2.776 -3.517,0.508 -7.587,0.338c0.015,11.59 10.402,18.696 3.786,15.199c-0.501,-0.265 -10.299,-9.47 -6.179,-26.286c0.362,-1.476 1.068,-4.361 -2.023,-18.891c-1.273,-5.984 -13.326,-8.042 -12.553,3.883c0.124,1.908 1.317,1.683 1.725,1.843c6.663,0.342 4.361,-3.635 4.068,-3.795c-0.352,-0.191 -0.849,0.182 -1.201,-0.009l-0.882,-1.279Z" style="fill:#2c2c2c;"/><path d="M165.412,94.232c1.089,1.287 0.812,3.373 1.532,1.81c0,0 -0.878,-1.822 -0.954,-1.981c-0.008,-0.012 -1.395,-3.429 -3.975,-3.961c-2.578,-0.531 -8.613,-2.267 -13.856,-0.681c-11.217,3.394 -11.231,17.946 -12.214,9.664c-0.653,-5.498 9.343,-10.612 4.102,-11.081c-9.801,-0.876 -10.502,4.273 -12.994,3.99c-4.056,-0.46 6.905,-9.504 15.944,-5.765c3.371,1.394 3.432,0.109 7.036,-0.172c8.619,-0.672 11.087,1.407 11.79,1.561c1.895,0.417 1.247,-9.513 4.173,-9.812c2.868,-0.293 -1.452,6.026 0.221,10.176c6.992,17.343 20.929,10.174 23.371,24.16c0.505,2.891 1.485,2.182 4.411,2.212c4.638,0.048 5.14,1.833 3.91,2.395c-3.599,1.647 -6.543,-3.59 -12.451,5.588c-3.565,5.537 2.536,4.994 3.66,7.683c1.396,3.343 -3.029,0.515 -3.25,0.374c-11.128,-7.112 -15.294,1.901 -17.792,-0.384c-3.208,-2.933 10.81,-4.806 12.605,-6.422c6.437,-5.795 5.873,-11.462 5.764,-12.562c-0.571,-5.741 -17.804,-12.223 -21.395,-13.18c-0.244,0.245 -0.78,-0.075 -1.025,0.171c-0.108,0.108 -0.376,6.544 -6.034,7.691c-7.652,1.55 -10.36,-9.758 -7.965,-8.353c0.635,0.373 0.973,1.687 1.668,1.447c0.466,-0.161 1.294,-5.979 9.345,-4.933c2.262,0.294 2.204,1.08 4.372,0.362Z" style="fill:#303030;"/><path d="M391.946,190.034c1.921,-0.149 14.065,-1.093 24.087,0.024c0.732,3.352 0.711,5.986 0.754,20.989c-0.67,1.052 -0.836,0.875 -1.28,2.011c-0.498,1.274 -1.361,0.592 -1.511,0.566c-1.009,-0.174 -6.115,-0.206 -7.02,0.024c-0.61,0.155 -0.69,0.776 -3.276,-0.554c0.018,-9.056 0.333,-8.994 0.373,-18.039c0.01,-2.3 -1.886,-2.001 -11.958,-2.26c-0.057,-0.92 -0.113,-1.84 -0.17,-2.76Z" style="fill:#030303;"/><path d="M403.681,269.965c2.583,0.186 5.844,0.185 6.352,0.185c1.656,-0 3.312,-0.046 4.968,-0.016c2.254,0.04 0.949,1.427 1.182,19.885c0.134,1.845 0.325,1.724 1.056,3.363c-0.177,0.451 -0.438,0.191 -0.607,0.618c-0.425,1.08 -0.49,0.993 -0.984,1.995c-1.225,-1.151 -0.998,-1.618 -2.64,-1.652c-0.553,-0.011 -6.749,-0.139 -6.902,0.284c-0.332,0.915 1.216,1.868 0.884,2.784c-1.119,-0.136 -2.239,-0.272 -3.358,-0.408c-0,-13.525 -0.054,-13.448 0.049,-27.038Z" style="fill:#010101;"/><path d="M403.646,242.002c3.257,0.504 3.208,0.726 9.378,0.771c0.608,0.004 1.665,-0.992 3.794,1.316c-0.218,11.592 -0.688,11.516 -0.692,23.066c-6.237,0.14 -6.174,0.503 -12.441,-0.017c-0.12,-12.597 -0.074,-12.541 -0.038,-25.135Z" style="fill:#010101;"/><path d="M403.688,217.005c2.08,-0.163 2.066,-0.185 2.246,-0.176c8.387,0.428 8.46,-0.32 9.1,0.026c0.417,0.225 0.338,0.978 0.755,1.203l1.028,1.003c-0.019,1.61 -0.23,19.026 -0.523,20.12c-0.298,1.112 -9.185,0.587 -12.633,0.939c-0.032,-11.573 -0.048,-11.509 0.028,-23.114Z" style="fill:#020202;"/><path d="M174.678,65.594c0.559,0.808 1.118,1.617 1.677,2.425c-0.505,0.434 -1.493,-0.411 -1.998,0.024c-3.136,2.697 6.143,12.171 8.39,1.842c0.486,-0.078 0.973,-0.157 1.459,-0.235c0.372,0.235 3.366,2.121 5.4,1.043c0.465,-0.247 -1.794,-8.189 -0.332,-9.387c2.895,-2.373 0.123,6.623 5.862,11.656c9.627,8.443 11.65,12.838 12.186,8.169c0.998,-8.698 -2.484,-13.128 0.792,-10.542c3.243,2.559 0.924,16.058 0.687,17.434c-1.015,5.909 6.709,6.535 1.321,29.067c-0.492,2.058 -2.724,1.815 -2.325,-1.043c0.234,-1.673 0.575,-3.331 0.767,-5.01c3.158,-27.551 -19.222,-42.13 -25.364,-36.59c-7.748,6.99 -16.283,-3.386 -8.525,-8.852Z" style="fill:#313131;"/><path d="M419.739,186.069c-0.46,1.992 -0.37,1.967 0.128,3.948c-0.162,9.941 -0.188,9.863 -0.228,23.109l-0.003,3.857c0,11.141 0.133,11.075 -0.004,22.191l-0.415,0.717c-2.399,1.246 -2.244,1.551 -2.399,4.198c-2.129,-2.308 -3.186,-1.312 -3.794,-1.316c-6.17,-0.045 -6.121,-0.267 -9.378,-0.771l0.014,-1.883c3.448,-0.351 12.335,0.174 12.633,-0.939c0.294,-1.094 0.504,-18.51 0.523,-20.12c-0.011,-7.317 0.001,-7.268 -0.029,-8.014c-0.043,-15.002 -0.022,-17.636 -0.754,-20.989c0.029,-1.58 -0.17,-1.492 -0.149,-3.098c1.822,-7.593 -2.027,-23.832 3.275,-22.08c0.495,0.163 0.849,0.344 0.579,21.189Z" style="fill:#828282;"/><path d="M76.745,161.199c0.639,6.291 -0.816,6.996 3.509,11.603c4.247,4.524 1.282,-7.702 5.086,-10.316c3.652,-2.51 0.001,1.86 0.023,11.529c0.004,1.664 0.008,3.566 9.099,18.702c1.564,2.603 7.312,-3.586 11.805,-1.914c4.872,1.813 -1.564,1.017 -5.932,3.704c-9.616,5.917 -6.401,20.215 -10.08,20.053c-4.363,-0.192 5.711,-13.267 -0.308,-24.453c-4.983,-9.259 -9.405,-13.539 -10.433,-14.535c-0.869,-0.841 -6.813,-6.595 -4.404,-14.457c0.323,-1.055 0.684,-0.435 1.636,0.083Z" style="fill:#2b2b2b;"/><path d="M142.3,233.529c-0.488,0.094 -0.976,0.188 -1.464,0.282c-0.337,0.304 -3.383,0.777 1.677,7.87c2.78,3.898 7.663,7.049 8.423,7.539c5.82,3.756 6.099,3.084 7.851,4.165c10.415,6.425 -11.424,1.72 -20.511,-12.482c-2.741,-4.284 -1.242,-6.118 -6.181,-7.215c-18.192,-4.039 -20.283,-21.554 -19.688,-23.549c1.597,-5.361 2.541,2.615 2.577,2.925c0.108,0.909 3.225,9.426 7.394,12.514c13.857,10.263 23.195,3.959 24.764,5.388c2.246,2.045 -4.405,2.532 -4.842,2.563Z" style="fill:#222;"/><path d="M197.036,144.97c2.058,0.792 2.193,0.585 3.551,2.26c6.26,9.055 -6.367,14.913 -13.103,7.406c-3.52,-3.924 3.344,-12.648 7.65,-12.086c0.911,0.119 0.835,2.032 1.004,2.166c0.244,0.193 0.654,0.061 0.898,0.254Z" style="fill:#fafafa;"/><path d="M271.957,270.04c2.876,-0.232 2.898,-0.897 6.974,0.192c-0.126,1.824 0.584,1.737 0.76,22.846c-0.366,0.104 -0.129,0.925 -0.496,1.029c-1.352,0.385 -2.816,0.099 -4.207,0.308c-0.35,0.052 -0.606,0.532 -0.954,0.466c-0.409,-0.077 -0.531,-0.746 -0.941,-0.823l-0.694,-0.033c-0.147,-7.995 -0.295,-15.99 -0.442,-23.985Z" style="fill:#0a0909;"/><path d="M84.807,224.41c0.031,0.06 12.74,31.835 28.005,39.148c4.829,2.313 6.352,2.039 5.242,3.521c-1.505,2.009 -17.767,-0.414 -32.207,-32.945c-0.772,-1.739 -1.908,-5.532 -2.054,-6.02c-0.645,-2.155 -1.026,-2.633 1.014,-3.704Z" style="fill:#131313;"/><path d="M68.465,227.992c-1.289,-10.858 -1.41,-15.844 1.223,-25.023c0.172,-0.598 1.961,-6.836 3.318,-7.035c5.468,-0.804 -8.722,10.143 1.108,41.101c4.632,14.589 10.288,20.472 4.991,16.903c-5.142,-3.464 -10.107,-23.767 -10.64,-25.946Z" style="fill:#242424;"/><path d="M251.259,162.79c0.249,-0.053 0.245,0.635 0.494,0.582c0.872,-0.187 0.446,-0.87 1.311,-0.97c0.72,-0.083 0.339,0.78 1.013,0.703c0.317,11.925 -0.403,11.888 0.273,23.782c0.024,1.436 -0.082,1.407 0.268,2.806c-0.519,1.795 -0.957,21.958 0.178,24.577c0.197,1.402 0.006,1.367 0.233,2.781l-0.777,0.257c-1.748,0.563 -2.001,1.137 -3.248,-0.22c0.008,-0.492 -0.272,-0.361 -0.264,-0.855c0.003,-0.18 0.011,-0.167 0.149,-2.25c0.864,-6.835 0.48,-21.504 0.205,-23.965c0.085,-1.542 -0.28,-1.481 -0.213,-3.054c0.585,-5.273 0.597,-16.826 0.378,-24.174Z" style="fill:#626160;"/><path d="M197.136,350.826c-1.083,-0.102 -11.068,-1.042 -13.051,-3.802c-4.496,-6.259 5.987,3.728 15.792,-0.284c6.246,-2.556 5.734,-3.409 8.563,-9.465c0.891,-1.907 3.439,-0.901 2.396,1.719c-3.348,8.416 -7.762,8.657 -4.57,10.711c9.956,6.408 7.709,17.099 7.586,17.195c-1.674,1.31 -2.047,-3.528 -2.558,-5.064c-0.411,-0.596 -0.821,-1.191 -1.232,-1.787c-0.719,-3.503 -2.076,-10.14 -10,-7.882c-0.976,-0.447 -1.952,-0.895 -2.928,-1.342Z" style="fill:#232323;"/><path d="M151.963,271.247c-0.186,-0.078 -5.207,-1.746 -10.62,-5.588c-1.862,-1.322 -7.29,-6.342 -7.268,-8.597c0.024,-2.48 2.882,0.685 3.052,0.873c11.353,12.57 29.373,10.167 40.136,25.006c1.906,2.628 -0.2,3.219 -0.855,2.621c-7.372,-6.725 -6.978,-7.58 -24.445,-14.314Z" style="fill:#151515;"/><path d="M177.172,188.249c-6.992,5.847 -4.445,7.688 -7.245,10.7c-1.958,2.106 -3.193,-2.819 0.621,-8.227c0.451,-0.64 3.177,-3.544 0.49,-4.672c-0.99,-0.415 -9.982,-4.189 -9.968,-8.987c0.01,-3.533 2.3,0.372 2.4,0.542c2.682,4.572 11.452,6.862 13.573,6.558c1.686,-0.242 10.288,-2.342 15.896,0.06c2.106,0.902 3.268,0.56 3.172,1.863c-0.188,2.547 -9.425,-2.197 -18.939,2.164Z" style="fill:#262626;"/><path d="M308.066,294.73c1.972,1.922 1.389,2.286 1.439,12.335c0.005,1.047 0.055,1.01 0.133,13.091l0.045,2.808c0.052,5.469 -0.589,5.454 0.384,10.882c-1.016,0.051 -2.032,0.102 -3.048,0.153c-0.456,-8.034 0.581,-11.378 -1.207,-11.528c-3.874,-0.326 -3.817,0.568 -7.735,0.298c-0.264,-0.018 -3.318,-2.548 1.959,-2.671c1.667,-0.039 3.334,0.012 5.001,-0.028c2.222,-0.054 2.062,-1.247 1.757,-21.973c0.136,-1.051 0.106,-1.001 0.263,-2.028c0.133,-0.863 0.459,-0.609 1.009,-1.339Z" style="fill:#999;"/><path d="M403.685,267.137c6.267,0.52 6.204,0.158 12.441,0.017c1.48,-0.034 1.415,-0.126 2.95,-0.164c0.613,0.744 1.605,1.945 0.65,12.031c-0.387,4.086 -0.737,3.976 -0.853,8.005c-0.065,2.257 0.157,2.223 -0.603,4.309c-1.742,-1.02 -1.718,-0.938 -2.088,-1.317c-0.232,-18.458 1.073,-19.845 -1.182,-19.885c-1.656,-0.03 -3.312,0.016 -4.968,0.016c-0.508,0 -3.769,0.001 -6.352,-0.185c0.001,-0.943 0.003,-1.886 0.004,-2.828Z" style="fill:#686868;"/><path d="M126.071,110.627c-4.18,0.189 -4.119,-0.029 -7.014,0.558c-5.636,1.143 -11.561,6.37 -8.959,1.904c2.595,-4.455 11.792,-5.32 12.907,-5.425c2.882,-0.271 2.325,-1.649 4.136,-5.527c0.943,-2.021 2.441,-1.411 2.295,0.865c-0.087,1.358 -0.347,2.702 -0.422,4.061c-0.12,2.199 6.85,4.222 7.595,6.177c1.636,4.295 -3.882,-1.639 -10.538,-2.613Z" style="fill:#333;"/><path d="M309.177,213.03c4.027,1.544 17.866,-0.25 21.92,0.582c2.168,0.445 2.466,-0.515 3.412,0.505c0.255,0.275 -0.115,0.841 0.14,1.116c0.421,0.546 0.842,1.092 1.262,1.638l0.537,1.187l-0.415,0.609l-1,0.293l-1.171,-0.902c-0.224,-0.124 -0.215,-1.026 -1.827,-1.01c-20.564,0.208 -20.528,-0.453 -22.305,-0.287c-0.205,0.019 -0.186,0.459 -0.391,0.478c-0.028,-0.336 -0.182,-2.17 -0.164,-4.209Z" style="fill:#3a3937;"/><path d="M333.83,293.936c-0.003,-2.435 -0.559,-10.034 1.149,-10.164c2.211,-0.168 1.19,4.534 2.53,11.083l-0.143,1.363c-1.728,4.637 -0.141,18.514 -1.002,19.84c-0.366,0.563 -0.987,0.929 -1.353,1.492c-2.701,-5.555 -0.479,-10.952 -1.416,-20.264c0.078,-1.117 0.156,-2.233 0.235,-3.35Z" style="fill:#3b3a3a;"/><path d="M281.931,214.068c0.746,-0.18 1.349,-0.772 2.095,-0.952c0.911,-0.22 9.704,0.266 18.01,0.192c2.4,-0.021 2.289,1.453 4.58,0.725l-0.422,2.941c-1.345,-0.568 -1.331,-0.646 -1.453,-0.614c-0.317,0.084 -0.382,0.641 -0.707,0.683c-1.102,0.143 -19.728,-0.115 -20.019,-0.159c-0.742,-0.113 -1.345,-0.733 -2.087,-0.846l0.003,-1.97Z" style="fill:#383736;"/><path d="M419.64,213.126c10.056,0.493 28.812,-1.555 22.709,3.3c-1.422,1.132 -1.59,0.622 -22.712,0.557l0.003,-3.857Z" style="fill:#2b2b2b;"/><path d="M278.931,270.232c0.682,0.047 0.432,-0.602 1.106,-0.555c0.796,0.055 0.515,0.656 1.312,0.722c0.243,0.02 0.207,-0.596 0.45,-0.576c-0.411,5.201 0.728,18.132 0.174,27.217l-0.077,5.355c-0.906,0.013 -1.813,0.026 -2.719,0.038c0.265,-2.751 0.473,-2.731 -0.067,-5.416c0.012,-0.636 0.49,-0.398 0.502,-0.997c0.012,-0.588 -0.497,-0.347 -0.464,-0.924c0,0 0.5,-1.857 0.544,-2.018c-0.176,-21.109 -0.886,-21.022 -0.76,-22.846Z" style="fill:#9e9e9e;"/><path d="M419.217,239.891c0.353,1.584 0.317,1.506 0.44,3.058c0.122,11.862 0.154,11.873 -0.406,14.252c-1.141,4.856 -0.478,4.854 -0.175,9.79c-1.535,0.038 -1.47,0.13 -2.95,0.164c0.005,-11.55 0.474,-11.473 0.692,-23.066c0.155,-2.647 -0,-2.952 2.399,-4.198Z" style="fill:#7e7e7e;"/><path d="M391.945,186.078c0.417,0.056 0.672,0.583 1.089,0.639c1.812,0.244 1.813,-1.035 22.851,0.243c-0.021,1.605 0.178,1.517 0.149,3.098c-10.023,-1.117 -22.166,-0.173 -24.087,-0.024c-0,-1.319 -0,-2.638 -0.001,-3.956Z" style="fill:#3c3b3a;"/><path d="M250.98,135.14c1.665,-0.023 1.608,0.315 3.297,0.228c-0.123,11.787 0.247,11.703 -0.163,23.543c-0.944,0.544 -0.957,0.435 -1.995,0.147l-0.998,0.078c0.269,-16.318 0.525,-22.539 -0.142,-23.996Z" style="fill:#4e4d4d;"/><path d="M281.959,77.113c3.45,0.507 20.949,0.443 24.075,-0.055c-0.021,0.271 -0.468,0.381 -0.489,0.651c0,0 0.293,2.309 0.318,2.51c-11.844,-0.075 -11.769,0.267 -23.62,0.028c0.069,-0.721 -0.542,-0.545 -0.472,-1.275c0.073,-0.764 0.635,-0.491 0.714,-1.265c0.027,-0.263 -0.551,-0.331 -0.525,-0.594Z" style="fill:#4f4e4e;"/><path d="M199.502,166.097c-0.735,3.66 -1.947,2.964 -5.502,2.101c-5.113,-1.241 -3.588,-7.855 -1.877,-7.873c0.571,-0.006 6.649,-0.069 7.12,0.403c0.908,0.909 0.424,1.102 0.259,5.369Z" style="fill:#fdfdfd;"/><path d="M250.889,213.983c-0.138,2.083 -0.146,2.069 -0.149,2.25c-0.008,0.494 0.272,0.363 0.264,0.855c-5.515,-0.218 -21.684,1.078 -17.143,-3.177c1.022,-0.957 6.934,-0.623 9.175,-0.599c1.679,0.018 3.373,-0.161 5.036,0.07c1.27,0.177 1.044,0.685 2.273,0.947c0.379,0.081 0.16,-0.428 0.543,-0.346Z" style="fill:#2c2b2b;"/><path d="M308.066,294.73c-0.55,0.729 -0.876,0.475 -1.009,1.339c-0.158,1.027 -0.127,0.977 -0.263,2.028c-1.681,-0.923 -1.775,-0.814 -22.764,-1.016c-0.022,-1.541 -0.582,-2.235 0.966,-2.265c10.998,-0.213 11.025,0.711 18.06,-0.648c2.531,-0.489 2.524,-0.266 5.011,0.561Z" style="fill:#7b7a7a;"/><path d="M281.97,186.075c9.385,0.602 9.331,0.336 19.044,0.325c0.248,-0 0.225,0.047 3.035,0.629c0.2,0.411 0.4,0.821 0.6,1.232l0.318,1.232c-1.831,-0.21 -1.826,0.103 -23.031,-0.463c0.011,-0.985 0.023,-1.97 0.034,-2.955Z" style="fill:#b9b9b9;"/><path d="M419.739,186.069c0.793,0.126 0.505,0.611 1.356,0.746c1.452,0.231 1.398,-0.042 2.929,-0.065c4.642,-0.071 6.184,0.062 6.673,-0.13c2.352,-0.924 8.729,-0.101 9.085,0.584c1.453,2.797 -12.552,2.171 -19.914,2.813c-0.499,-1.981 -0.588,-1.956 -0.128,-3.948Z" style="fill:#636261;"/><path d="M282.118,49.988c11.88,-0.051 17.376,-2.309 17.421,2.023c0.008,0.751 -5.979,0.754 -6.503,0.754c-5.577,0.003 -5.52,0.253 -11.062,0.256c-0.01,-1.543 0.158,-1.45 0.144,-3.033Z" style="fill:#585857;"/><path d="M250.881,186.964c-0.067,1.572 0.298,1.512 0.213,3.054c-2.546,-1.003 -22.591,1.419 -16.988,-2.867c0.747,-0.571 13.505,-1.091 16.775,-0.187Z" style="fill:#3e3e3d;"/><path d="M416.788,211.047c0.03,0.746 0.018,0.697 0.029,8.014l-1.028,-1.003c-0.417,-0.225 -0.338,-0.978 -0.755,-1.203c-0.641,-0.346 -0.713,0.402 -9.1,-0.026c-0.18,-0.009 -0.166,0.013 -2.246,0.176l0.013,-3.911c2.586,1.33 2.666,0.709 3.276,0.554c0.905,-0.23 6.011,-0.198 7.02,-0.024c0.149,0.026 1.013,0.708 1.511,-0.566c0.444,-1.136 0.611,-0.959 1.28,-2.011Z" style="fill:#363636;"/><path d="M197.136,350.826c0.976,0.447 1.952,0.895 2.928,1.342c-0.173,0.228 -5.452,6.416 -0.938,5.965c0.938,-0.094 1.561,-3.521 4.829,0.001c2.459,2.65 0.034,5.032 -2.585,2.526c-1.665,-1.593 -5.202,1.875 -6.212,-2.632c-0.712,-3.175 2.149,-5.47 2.27,-6.134c0.066,-0.363 -0.357,-0.705 -0.291,-1.068Z" style="fill:#585857;"/><path d="M162.485,96.921c-2.025,4.039 -0.971,5.532 -5.435,6.204c-7.484,1.127 -2.447,-10.613 5.435,-6.204Z" style="fill:#fdfdfd;"/><path d="M149.895,381.08c8.221,1.437 6.184,9.344 3.189,10.417c-6.67,2.39 -7.168,-4.98 -4.042,-5.344c3.26,-0.38 -0.545,2.655 0.223,3.477c1.741,1.864 8.85,-4.082 -0.274,-6.754c0.301,-0.599 0.603,-1.197 0.904,-1.796Z" style="fill:#646363;"/><path d="M179.543,66.878c2.069,1.045 2.236,0.926 3.204,3.006c-2.247,10.329 -11.527,0.855 -8.39,-1.842c0.505,-0.434 1.493,0.411 1.998,-0.024c0.014,0.294 0.172,3.727 2.527,2.666c1.001,-0.451 0.452,-0.728 0.229,-2.648c0.144,-0.386 0.288,-0.772 0.432,-1.158Z" style="fill:#f7f7f7;"/><path d="M85.353,324.881c-0.193,-0.58 -1.641,-4.945 -0.093,-7.645c1.14,-1.988 6.909,5.981 6.539,6.774c-0.98,2.1 -3.583,1.062 -6.446,0.871Z" style="fill:#fefefe;"/><path d="M337.076,187.048c1.895,-0.027 17.181,-1.224 13.255,2.293c-0.792,0.71 -1.014,-0.128 -13.277,0.721l0.022,-3.014Z" style="fill:#393838;"/><path d="M309.686,240.258c6.026,-0.934 11.865,-0.213 12.148,0.063c2.884,2.804 -5.899,2.322 -12.216,2.537c-0.016,-0.403 -0.005,-0.359 0.068,-2.6Z" style="fill:#535251;"/><path d="M337.001,78.079c5.017,-0.673 4.972,-0.987 9.979,-0.609c0.471,0.036 2.874,0.791 1.583,2.372c-1.391,1.703 -1.842,0.744 -11.598,0.171c0.012,-0.645 0.024,-1.289 0.036,-1.934Z" style="fill:#303030;"/><path d="M405.035,162.217c-2.856,-0.051 -4.085,-1.121 -1.921,-3.076c2.691,-2.431 3.085,-0.005 7.042,0.579c1.892,0.279 2.776,-0.533 2.787,1.338c0.013,2.169 -7.104,1.175 -7.908,1.159Z" style="fill:#555;"/><path d="M210.064,360.05c0.411,0.596 0.821,1.191 1.232,1.787c-3.336,4.16 -3.968,4.735 -4.365,5.096c-5.27,4.796 -11.216,0.301 -6.963,-0.088c6.392,-0.585 5.9,-1.891 10.096,-6.794Z" style="fill:#6c6b6a;"/><path d="M361.088,104.247c0.101,-1.109 0.316,-1.053 0.198,-2.179c-0.075,-0.719 -0.828,-7.905 0.749,-9.01c0.745,-0.522 2.848,-0.311 1.935,11.213c-0.961,-0.008 -1.921,-0.016 -2.882,-0.024Z" style="fill:#5b5a5a;"/><path d="M271.971,267.085c3.04,0.11 2.992,0.123 6.074,0.017c1.311,0.024 2.622,0.048 3.933,0.072c0.264,0.145 3.501,0.615 -0.18,2.648c-0.243,-0.02 -0.207,0.596 -0.45,0.576c-0.797,-0.066 -0.516,-0.667 -1.312,-0.722c-0.674,-0.046 -0.423,0.602 -1.106,0.555c-4.076,-1.089 -4.097,-0.424 -6.974,-0.192c0.005,-0.985 0.009,-1.97 0.014,-2.954Z" style="fill:#8e8d8d;"/><path d="M363.406,266.095c0.198,2.005 0.363,1.966 0.133,3.969c-6.876,-1.506 -7.088,0.604 -10.728,-0.639c-0.241,-0.082 -2.411,-2.258 2.224,-2.271c1.667,-0.005 3.334,0.021 5.001,-0.009c2.403,-0.042 2.204,-0.687 3.369,-1.05Z" style="fill:#7d7d7d;"/><path d="M389.362,186.14c0.051,-0.425 0.615,-5.09 1.671,-5.08c1.116,0.011 0.609,0.629 0.912,5.018c0,1.319 0,2.638 0.001,3.956c0.057,0.92 0.113,1.84 0.17,2.76c-0.608,-0.089 -1.215,-0.179 -1.823,-0.268c-0.944,-3.156 -0.368,-3.193 -0.931,-6.387Z" style="fill:#9d9c9c;"/><path d="M415.648,295.996c-2.789,2.305 -3.483,1.394 -8.658,1.416c0.332,-0.915 -1.216,-1.868 -0.884,-2.784c0.153,-0.423 6.35,-0.295 6.902,-0.284c1.642,0.034 1.415,0.501 2.64,1.652Z" style="fill:#3c3c3c;"/><path d="M279.691,293.078c-0.044,0.161 -0.544,2.018 -0.544,2.018c-0.033,0.577 0.476,0.336 0.464,0.924c-0.012,0.599 -0.489,0.361 -0.502,0.997c-0.321,0.032 -4.017,0.401 -4.017,0.401c-1.146,-0.07 -0.971,-0.37 -1.058,-0.351c-0.679,0.152 -0.328,0.66 -1,0.811l-0.594,0.208l-0.041,-4.06l0.694,0.033c0.409,0.077 0.531,0.746 0.941,0.823c0.348,0.066 0.604,-0.414 0.954,-0.466c1.391,-0.209 2.855,0.077 4.207,-0.308c0.366,-0.104 0.129,-0.925 0.496,-1.029Z" style="fill:#464646;"/><path d="M309.638,320.156c5.955,0.132 5.877,0.002 6.383,0.065c0.392,0.049 0.621,0.568 1.013,0.618c-0.208,0.482 0.208,1.094 0,1.576c-0.234,0.541 -0.66,1.526 -7.351,0.548l-0.045,-2.808Z" style="fill:#2b2b2b;"/><path d="M279.423,212.124c0.007,0.387 -0.043,0.374 -0.025,4.837c-2.099,-0.159 -2.086,-0.183 -2.267,-0.172c-5.617,0.36 -2.783,-3.568 -1.075,-3.612c1.833,-0.048 1.748,-0.19 3.367,-1.053Z" style="fill:#333232;"/><path d="M419.633,239.173c0.988,0.291 0.819,0.79 2.395,0.705c5.718,-0.307 4.474,2.143 4.136,2.315c-0.726,0.37 -3.043,0.613 -4.136,0.478c-1.269,-0.157 -1.169,0.136 -2.371,0.276c-0.123,-1.552 -0.086,-1.474 -0.44,-3.058l0.415,-0.717Z" style="fill:#434343;"/><path d="M306.851,238.973c0.117,1.928 0.12,1.916 0.126,2.082c0.037,1.049 -0.09,1.003 -0.053,2.043c-6.167,-0.903 -6.304,-0.771 -6.547,-1.245c-1.374,-2.685 2.07,-0.654 6.474,-2.88Z" style="fill:#525150;"/><path d="M363.389,239.089c0.007,1.649 0.013,3.298 0.02,4.947c-4.403,-2.215 -4.696,-1.214 -5.058,-1.426c-3.854,-2.26 0.929,-1.75 5.039,-3.52Z" style="fill:#424242;"/><path d="M251.505,44.234c0.779,-0.025 1.558,-0.049 2.337,-0.074c0.1,0.554 0.074,0.526 0.457,5.619c-1.127,0.027 -2.253,0.055 -3.38,0.082c1.342,-1.89 -0.038,-2.156 0.586,-5.627Z" style="fill:#3d3c3c;"/><path d="M202.222,387.191c-0.375,2.468 -0.034,2.417 -0.166,4.948c-0.458,-0.086 -4.143,-0.773 -2.762,-5.133c0.589,-1.859 1.232,-0.694 2.929,0.185Z" style="fill:#f9f9f9;"/><path d="M174.678,65.594c3.185,-1.724 3.912,-1.053 6.631,0.188l-1.765,1.096c-0.144,0.386 -0.288,0.772 -0.432,1.158c-1.411,-0.068 -1.338,-0.09 -2.756,-0.018c-0.559,-0.808 -1.118,-1.617 -1.677,-2.425Z" style="fill:#9c9c9c;"/><path d="M191.565,151.193c1.025,-0.174 2.05,-0.348 3.075,-0.522c4.033,-3.941 2.611,1.504 2.047,1.972c-2.709,2.245 -4.889,-1.093 -5.122,-1.449Z" style="fill:#404040;"/><path d="M195.372,146.369c-1.777,1.861 -2.113,2.165 -0.731,4.301c-1.025,0.174 -2.05,0.348 -3.075,0.522c-0.067,-0.557 -1.133,-2.232 1.452,-5.16c0.887,-1.005 0.893,-1.004 1.005,-0.988c1.059,0.151 0.334,1.18 1.35,1.325Z" style="fill:#909090;"/><path d="M333.83,293.936c-0.078,1.117 -0.156,2.233 -0.235,3.35c-6.574,0.069 -3.037,-3.249 -2.602,-3.34c0.295,-0.061 2.61,-0.014 2.836,-0.01Z" style="fill:#2c2b2b;"/><path d="M251.289,41.98c0.004,-0.172 -0.483,-1.379 0.522,-2.247c2.592,-2.241 2.064,4.038 2.031,4.427c-0.779,0.025 -1.558,0.049 -2.337,0.074l-0.297,-1.163c0.027,-0.363 0.055,-0.727 0.082,-1.09Z" style="fill:#242323;"/><path d="M251.004,217.088c1.248,1.356 1.5,0.783 3.248,0.22c-0.563,4.761 -0.997,5.454 -2.205,4.72c-0.345,-0.21 -0.652,-0.396 -1.043,-4.939Z" style="fill:#333;"/><path d="M59.167,210.064c4.249,5.111 2.818,7.35 1.814,6.232c-2.032,-2.263 -1.631,-2.461 -2.91,-5.174l1.097,-1.057Z" style="fill:#a5a5a5;"/><path d="M202.222,387.191l0.841,-0.218c1.942,1.855 0.788,2.261 0.97,4.954c-0.659,0.071 -1.318,0.142 -1.978,0.212c0.132,-2.531 -0.209,-2.479 0.166,-4.948Z" style="fill:#727171;"/><path d="M72.829,299.052c0.352,0.191 0.849,-0.182 1.201,0.009c0.293,0.159 2.595,4.137 -4.068,3.795c0.178,-0.599 0.356,-1.197 0.534,-1.796c1.878,0.193 2.121,-0.078 2.332,-2.007Z" style="fill:#b9b9b9;"/><path d="M254.796,214.269c2.056,-0.156 2.047,-0.208 2.221,-0.168c0.277,0.064 3.794,2.824 -1.987,2.949c-0.227,-1.414 -0.036,-1.379 -0.233,-2.781Z" style="fill:#3e3d3d;"/><path d="M278.045,267.103c1.547,-3.688 1.662,-3.69 1.998,-3.694c0.339,-0.005 0.842,-0.013 1.935,3.767c-1.311,-0.024 -2.622,-0.048 -3.933,-0.072Z" style="fill:#343333;"/><path d="M181.309,65.782c2.158,1.373 2.478,1.292 2.898,3.867c-0.486,0.078 -0.973,0.157 -1.459,0.235c-0.969,-2.08 -1.135,-1.961 -3.204,-3.006l1.765,-1.096Z" style="fill:#9f9f9f;"/><path d="M65.706,302.026c0.182,0.309 -0.219,0.767 -0.036,1.076c0.173,0.293 0.67,0.204 0.924,0.429c0,0 1.36,1.303 1.479,1.416c-0.263,0.255 -0.8,-0.535 -1.063,-0.28c-0.611,0.592 -0.538,1.646 -1.049,2.326c-0.219,0.292 -0.647,0.432 -1.011,0.419c-0.435,-0.015 -1.692,-0.271 0.756,-5.386Z" style="fill:#9a9a9a;"/><path d="M381.96,267.085c1.985,0.072 1.921,0.097 3.854,-0.124c0.074,2.93 0.244,2.844 0.235,3.091c-0.464,-0.121 -0.625,-0.818 -1.089,-0.939c-0.289,-0.076 -0.479,0.494 -0.775,0.452c-0.868,-0.124 -0.596,-0.568 -1.434,-0.767c-0.485,-0.115 -0.371,0.338 -0.828,0.229c0.012,-0.647 0.024,-1.295 0.036,-1.942Z" style="fill:#969696;"/><path d="M345.023,270.133c-1.544,-1.167 -2.594,-1.809 -0.784,-2.611c1.637,-0.726 5.083,1.711 0.784,2.611Z" style="fill:#323232;"/><path d="M192.9,398.018c0.264,0.322 3.277,3.998 1.839,4.863c-0.212,0.128 -0.388,-0.372 -0.635,-0.386c-0.315,-0.018 -0.884,0.682 -0.913,-0.589c-0.041,-1.84 -1.449,-2.199 -1.5,-2.277l1.209,-1.611Z" style="fill:#cac9c9;"/><path d="M176.355,68.019c1.418,-0.072 1.345,-0.05 2.756,0.018c0.224,1.92 0.772,2.197 -0.229,2.648c-2.355,1.061 -2.513,-2.372 -2.527,-2.666Z" style="fill:#585858;"/><path d="M208.057,392.047c3.091,0.011 3.202,-0.284 3.661,0.31c0.224,0.29 0.764,2.382 -4.433,1.167c0.257,-0.492 0.514,-0.985 0.771,-1.477Z" style="fill:#aaa9a8;"/><path d="M334.524,186.251c0.258,1.9 0.239,1.825 -0.082,3.673c-0.802,-0.284 -1.604,-0.568 -2.406,-0.851c0.128,-0.17 0.023,-0.188 1.037,-2.454l1.451,-0.367Z" style="fill:#61605f;"/><path d="M341.91,320.022c0.044,0.678 0.087,1.356 0.131,2.034c-2.118,0.063 -3.084,1.121 -3.257,-0.998c-0.172,-2.102 1.04,-0.86 3.127,-1.035Z" style="fill:#8d8d8d;"/><path d="M71.947,297.772l0.882,1.279c-0.212,1.93 -0.455,2.201 -2.332,2.007c0.286,-1.865 0.13,-1.938 1.45,-3.287Z" style="fill:#3e3e3e;"/><path d="M388.189,187.175c-0.424,1.638 0.749,2.886 -0.914,2.484c-0.111,-0.027 -1.15,-0.278 -1.315,-0.552c-1.02,-1.695 0.388,-1.266 2.229,-1.931Z" style="fill:#343231;"/><path d="M416.183,290.019c0.37,0.379 0.347,0.297 2.088,1.317c-0.344,0.682 -0.688,1.364 -1.033,2.046c-0.731,-1.639 -0.922,-1.518 -1.056,-3.363Z" style="fill:#141414;"/><path d="M278.078,50.112l0.582,-0.303c-0.001,1.145 -0.002,2.29 -0.003,3.435l-0.466,-0.338c-0.344,-1.399 -0.277,-1.369 -0.113,-2.794Z" style="fill:#3f3e3e;"/><path d="M165.412,94.232l0.577,-0.171c0.076,0.158 0.954,1.981 0.954,1.981c-0.72,1.562 -0.443,-0.523 -1.532,-1.81Z" style="fill:#6f6f6f;"/><path d="M282.193,162.144c0.31,-0.488 -0.353,-0.545 -0.032,-1.05c0.742,-1.167 0.7,0.386 1.872,1.032l-1.841,0.018Z" style="fill:#545352;"/><path d="M361.78,157.031c0.787,1.262 2.376,1.033 1.248,2.003c-0.283,0.243 -0.822,-0.421 -1.105,-0.178l-0.144,-1.825Z" style="fill:#737271;"/><path d="M60.198,246.231c0.359,-0.001 0.478,-0.677 0.836,-0.677c0,0 0.663,1.449 0.72,1.575c-0.519,-0.299 -1.038,-0.598 -1.556,-0.897Z" style="fill:#a6a6a6;"/><path d="M337.51,294.855c0.584,1.198 0.683,1.192 0.63,1.294c-0.22,0.424 -0.548,-0.367 -0.773,0.068l0.143,-1.363Z" style="fill:#323231;"/></g></svg>